<?xml version="1.0" encoding="utf-8"?>
<!-- Generator: Adobe Illustrator 19.2.0, SVG Export Plug-In . SVG Version: 6.00 Build 0)  -->
<svg version="1.1" id="Layer_1"
	 xmlns="http://www.w3.org/2000/svg" xmlns:xlink="http://www.w3.org/1999/xlink" x="0px" y="0px" viewBox="0 0 570.2 634.4"
	 style="enable-background:new 0 0 570.2 634.4;" xml:space="preserve">
<style type="text/css">
	.st0{display:none;}
	.st1{fill:#3C3658;}
	.st2{clip-path:url(#SVGID_2_);fill:url(#SVGID_3_);}
	.st3{opacity:0.5;clip-path:url(#SVGID_2_);fill:#FFFFFF;}
	.st4{opacity:0.8;}
	.st5{fill:#FFFFFF;}
	.st6{fill:none;stroke:#3D3E6F;stroke-miterlimit:10;}
	.st7{fill:none;stroke:#3C3658;stroke-width:4;stroke-miterlimit:10;}
	.st8{fill:#231D3E;}
	.st9{fill:none;stroke:#3C3658;stroke-miterlimit:10;}
	.st10{fill:url(#SVGID_4_);}
	.st11{fill:url(#SVGID_5_);}
	.st12{fill:#BBBDBF;}
	.st13{fill:#C6C6C6;}
	.st14{fill:#D0D2D3;}
	.st15{fill:url(#SVGID_6_);}
	.st16{fill:url(#SVGID_7_);}
	.st17{fill:url(#SVGID_8_);}
	.st18{fill:url(#SVGID_9_);}
	.st19{fill:url(#SVGID_10_);}
	.st20{fill:url(#SVGID_11_);}
	.st21{fill:url(#SVGID_12_);}
	.st22{fill:url(#SVGID_13_);}
	.st23{fill:#FFFFFF;stroke:#3D3E6F;stroke-miterlimit:10;}
	.st24{fill:url(#SVGID_14_);}
	.st25{fill:#EBC88A;}
	.st26{display:none;fill:none;stroke:#3C3658;stroke-miterlimit:10;}
	.st27{display:inline;}
	.st28{fill:#3D3E6F;}
	.st29{display:inline;fill:#3D3E6F;}
	.st30{font-family:'SFUIDisplay-Regular';}
	.st31{font-size:16.4515px;}
	.st32{fill:#F18F25;}
	.st33{fill:none;stroke:#FFFFFF;stroke-miterlimit:10;}
	.st34{fill:none;stroke:#303162;stroke-miterlimit:10;}
</style>
<g id="mainblock">
	<defs>
		<rect id="SVGID_1_" x="739.3" y="-88.2" width="1920" height="1000"/>
	</defs>
	<clipPath id="SVGID_2_">
		<use xlink:href="#SVGID_1_"  style="overflow:visible;"/>
	</clipPath>
	<g style="clip-path:url(#SVGID_2_);">
		

	</g>
</g>
<g id="Box02c">
	<g>
		<g>
			<linearGradient id="SVGID_3_" gradientUnits="userSpaceOnUse" x1="82.2569" y1="346.7147" x2="570.1663" y2="346.7147">
				<stop  offset="0" style="stop-color:#DCAE6C"/>
				<stop  offset="0.9996" style="stop-color:#AA753F"/>
			</linearGradient>
			<path style="fill:url(#SVGID_3_);" d="M570.2,141.8l-0.7,270.8c-0.1,35.9-23.7,71.7-70.8,99.1c-94.8,55.1-249.1,55.1-344.5,0
				c-48-27.7-72-64.1-71.9-100.5c0.2-85.9,0.5-184.9,0.7-270.8c-0.1,36.3,23.9,72.7,71.9,100.5c95.4,55.1,249.7,55.1,344.5,0
				C546.5,213.5,570.1,177.7,570.2,141.8z"/>
		</g>
		<g>
			<g>
				<path class="st25" d="M498.3,41.3c95.4,55.1,95.9,144.4,1.1,199.6c-94.8,55.1-249.1,55.1-344.5,0C59.5,185.8,59,96.4,153.8,41.3
					C248.6-13.8,402.8-13.8,498.3,41.3z"/>
			</g>
		</g>
		<polygon id="XMLID_36_" class="st12" points="121.7,220.1 185,256.6 326.2,175.1 262.9,138.5 		"/>
		<path id="XMLID_35_" class="st12" d="M524.6,60.5c0,0-21.2-14.6-28.6-18.8c-8.6-4.9-35.4-17.3-35.4-17.3L326.2,102l63.3,36.5
			L524.6,60.5z"/>
		<path id="XMLID_34_" class="st13" d="M389.5,138.5L326.2,102L189.7,25.2c0,0-11.5,2-32,14.6c-22.2,13.6-32.2,19.4-32.2,19.4
			l137.4,79.3l63.3,36.5l141.2,81.5l63.3-36.5L389.5,138.5z"/>
		<polygon id="XMLID_33_" class="st14" points="497.7,239.2 151.9,39.6 154.7,37.8 500.5,237.4 		"/>
		<path id="XMLID_32_" class="st12" d="M530.7,485V220l-63.3,36.5v269.8c0,0,29.8-16.9,38.6-22.3C513.1,499.9,530.7,485,530.7,485z"
			/>
		<path id="XMLID_31_" class="st12" d="M121.7,489.7l32.2,22.9c6.1,3.5,17.8,6.6,27.2,13.7l3.9-269.8L121.7,220V489.7z"/>
	</g>
	<line class="st9" x1="520.3" y1="499" x2="295" y2="634"/>
	<line class="st9" x1="82.2" y1="413.7" x2="0.3" y2="462.8"/>
	<line class="st9" x1="95.6" y1="183.3" x2="40.1" y2="216.5"/>
	<line class="st26" x1="154.9" y1="240.9" x2="20.2" y2="159.1"/>
	<line class="st26" x1="498.3" y1="43.3" x2="377.5" y2="-25.1"/>
	<g class="st0">
		<g class="st27">
			<line class="st9" x1="59.4" y1="173" x2="391.3" y2="-11"/>
			<g>
				<polygon class="st1" points="53.2,176.4 63.9,175.2 59.9,172.7 60,168 				"/>
			</g>
		</g>
	</g>
	<g>
		<g>
			<line class="st9" x1="58.9" y1="213.4" x2="58.9" y2="471.6"/>
			<g>
				<polygon class="st1" points="58.9,206.4 54.8,216.3 58.9,214 62.9,216.3 				"/>
			</g>
			<g>
				<polygon class="st1" points="58.9,478.7 54.8,468.7 58.9,471.1 62.9,468.7 				"/>
			</g>
		</g>
	</g>
	<g>
		<g>
			<line class="st9" x1="22.1" y1="456.8" x2="302.5" y2="617.9"/>
			<g>
				<polygon class="st1" points="16,453.2 22.6,461.7 22.6,457 26.6,454.7 				"/>
			</g>
			<g>
				<polygon class="st1" points="308.6,621.5 297.9,620 302,617.7 302,613 				"/>
			</g>
		</g>
	</g>
	<g>
		<g>
			<path class="st28" d="M97,527.1l-1.1,2l-1.2-0.6l1.7-3.2l0.8,0.4c0.5,0,0.9-0.2,1.3-0.5c0.4-0.3,0.8-0.8,1.2-1.5l3.9-6.2l6.3,3.4
				l-4.9,9l1.3,0.7l-1.7,3.2l-1.2-0.6l1.1-2L97,527.1z M100.9,524.4c-0.4,0.6-0.7,1.1-1,1.4c-0.3,0.3-0.7,0.6-1.1,0.7l0,0.1l4.9,2.7
				l4.3-7.9l-3.9-2.1L100.9,524.4z"/>
			<path class="st28" d="M114,536.3l4.4-8.1l-0.1-0.1l-9.9,5.1l-1.3-0.7l5.5-10.2l1.3,0.7l-4.4,8.1l0.1,0.1l9.9-5.1l1.3,0.7
				l-5.5,10.2L114,536.3z"/>
			<path class="st28" d="M124,541.8l0.6-3.5l-4-2.2l-2.6,2.4l-1.3-0.7l9.3-8.1l1.3,0.7l-1.8,12.2L124,541.8z M125.6,531.5l-4.2,3.8
				l3.3,1.8L125.6,531.5L125.6,531.5z"/>
			<path class="st28" d="M142.2,538.5l-5.5,10.2l-1.2-0.6l4.3-7.8l0,0l-7.5,6l-1.1-0.6l1-9.5l0,0l-4.3,7.8l-1.2-0.6l5.5-10.2
				l1.5,0.8l-1.1,10.4l0.1,0l8.1-6.6L142.2,538.5z"/>
			<path class="st28" d="M145.7,552.1l-0.6,1.1l-6.3-3.4l5.5-10.2l6.3,3.4l-0.6,1.1l-5-2.7l-1.8,3.3l4.8,2.6l-0.6,1.1l-4.8-2.6
				l-1.9,3.5L145.7,552.1z"/>
			<path class="st28" d="M150.8,556.4l-1.3-0.7l4.9-9l-3.3-1.8l0.6-1.1l7.8,4.3l-0.6,1.1l-3.3-1.8L150.8,556.4z"/>
			<path class="st28" d="M161.1,548.8l3.8,2.1c1,0.5,1.6,1.3,1.8,2.2c0.3,0.9,0.2,1.9-0.4,2.8c-0.5,1-1.3,1.6-2.2,1.9
				c-0.9,0.3-1.9,0.2-2.9-0.4l-2.6-1.4l-2,3.6l-1.3-0.7L161.1,548.8z M161.8,550.6l-2.3,4.3l2.2,1.2c0.7,0.4,1.4,0.5,2,0.4
				c0.6-0.2,1.1-0.6,1.5-1.3c0.4-0.7,0.5-1.3,0.3-1.9c-0.2-0.6-0.7-1.1-1.4-1.5L161.8,550.6z"/>
			<path class="st28" d="M169.8,569.3l-1.1-0.6c-0.1-0.3-0.1-0.6-0.1-1c0-0.3,0-0.7,0-1.2c0-0.5,0.1-1,0.2-1.5
				c0.1-0.5,0.3-1,0.5-1.7s0.5-1.2,0.9-1.9c0.3-0.6,0.7-1.2,1.1-1.7c0.4-0.5,0.7-0.9,1.1-1.2c0.3-0.3,0.7-0.6,1.1-0.9
				c0.4-0.3,0.7-0.5,1-0.6s0.6-0.3,1-0.4l1,0.6c-0.3,0.1-0.6,0.3-1,0.5c-0.4,0.2-0.8,0.5-1.2,0.9c-0.5,0.4-0.9,0.9-1.4,1.5
				c-0.5,0.6-1,1.3-1.4,2.1c-0.3,0.5-0.5,1-0.7,1.5c-0.2,0.5-0.4,1-0.5,1.5c-0.1,0.5-0.2,0.9-0.3,1.2c-0.1,0.4-0.1,0.7-0.1,1.2
				c0,0.4,0,0.7,0,0.9C169.8,568.7,169.8,568.9,169.8,569.3z"/>
			<path class="st28" d="M177.7,557.9l3.5,1.9c1.5,0.8,2.4,1.9,2.8,3.3c0.4,1.4,0.1,2.8-0.8,4.4c-0.9,1.6-2,2.6-3.3,3.1
				c-1.3,0.4-2.8,0.2-4.3-0.6l-3.5-1.9L177.7,557.9z M178.3,559.7l-4.3,7.9l2.1,1.2c1.2,0.6,2.2,0.8,3.2,0.4c1-0.3,1.8-1.1,2.5-2.4
				c0.7-1.3,0.9-2.4,0.7-3.4s-0.9-1.8-2.1-2.5L178.3,559.7z"/>
			<path class="st28" d="M180.2,575c0.3-0.2,0.5-0.3,0.7-0.4c0.2-0.1,0.4-0.3,0.8-0.5s0.6-0.5,0.9-0.7s0.6-0.5,0.9-0.9
				c0.3-0.4,0.6-0.7,1-1.2c0.3-0.4,0.6-0.9,0.9-1.4c0.4-0.8,0.7-1.5,1-2.3c0.3-0.8,0.4-1.4,0.5-2c0.1-0.6,0.1-1.1,0.1-1.5
				c0-0.4,0-0.8-0.1-1.1l1,0.6c0.1,0.4,0.1,0.8,0.1,1.1s0,0.7,0,1.2c0,0.5-0.1,0.9-0.2,1.4c-0.1,0.4-0.2,1-0.5,1.6
				c-0.2,0.6-0.5,1.2-0.8,1.8c-1.4,2.5-3.1,4.2-5.3,5.1L180.2,575z"/>
		</g>
	</g>
	<g class="st0">
		<text transform="matrix(0.8737 -0.4865 0.4865 0.8737 163.9449 102.7131)" class="st29 st30 st31">ДЛИНА (L)</text>
	</g>
	<g>
		<g>
			<path class="st28" d="M49.4,377.4v4.5H37.8v-4.5c0-1,0.3-1.8,0.8-2.4s1.2-0.9,2.1-0.9c0.6,0,1.2,0.2,1.6,0.6
				c0.5,0.4,0.8,0.9,0.9,1.4h0.1c0.1-0.8,0.4-1.4,0.9-1.9s1.2-0.7,1.9-0.7c1,0,1.8,0.3,2.4,1C49.2,375.3,49.4,376.2,49.4,377.4z
				 M39.1,380.5h3.7v-2.3c0-0.9-0.2-1.5-0.5-2c-0.3-0.5-0.8-0.7-1.4-0.7c-0.6,0-1,0.2-1.3,0.6c-0.3,0.4-0.5,0.9-0.5,1.6V380.5z
				 M48.2,380.5v-2.9c0-0.9-0.2-1.5-0.5-2c-0.3-0.5-0.9-0.7-1.5-0.7c-1.3,0-2,0.9-2,2.8v2.7H48.2z"/>
			<path class="st28" d="M49.4,360.7v1.4H37.8v-1.4H49.4z M49.4,371.7H37.8v-1.4h4.3v-2.8c0-1.1,0.3-2,1-2.7c0.7-0.7,1.6-1,2.6-1
				c1.1,0,1.9,0.3,2.6,1c0.7,0.7,1,1.6,1,2.7V371.7z M48.1,370.3v-2.5c0-0.8-0.2-1.5-0.6-1.9c-0.4-0.5-1-0.7-1.7-0.7
				c-0.7,0-1.3,0.2-1.7,0.7s-0.6,1.1-0.6,1.9v2.5H48.1z"/>
			<path class="st28" d="M49.6,353.5c0,1.6-0.5,2.9-1.6,3.8s-2.5,1.4-4.4,1.4c-1.8,0-3.3-0.5-4.4-1.4c-1.1-0.9-1.6-2.2-1.6-3.8
				c0-1.2,0.3-2.3,1-3.2c0.7-0.9,1.6-1.4,2.7-1.6v1.5c-0.7,0.2-1.3,0.6-1.7,1.2c-0.4,0.6-0.6,1.3-0.6,2.1c0,1.1,0.4,2,1.3,2.7
				s2,1,3.4,1c1.4,0,2.6-0.3,3.4-1s1.3-1.6,1.3-2.7c0-0.8-0.2-1.5-0.5-2.1c-0.4-0.6-0.9-1-1.5-1.2v-1.5c1.1,0.3,1.9,0.8,2.5,1.7
				C49.3,351.2,49.6,352.3,49.6,353.5z"/>
			<path class="st28" d="M39.3,345.9c-1.1-1-1.6-2.3-1.6-3.9s0.5-2.9,1.6-3.9c1.1-1,2.5-1.4,4.4-1.4c1.8,0,3.3,0.5,4.4,1.4
				s1.6,2.3,1.6,3.9s-0.5,2.9-1.6,3.9s-2.5,1.4-4.4,1.4C41.8,347.3,40.3,346.9,39.3,345.9z M40.2,339.2c-0.8,0.7-1.3,1.6-1.3,2.8
				c0,1.2,0.4,2.1,1.3,2.8c0.8,0.7,2,1,3.4,1c1.4,0,2.6-0.3,3.4-1c0.8-0.7,1.3-1.6,1.3-2.8c0-1.2-0.4-2.1-1.3-2.8
				c-0.8-0.7-2-1-3.4-1C42.2,338.1,41.1,338.5,40.2,339.2z"/>
			<path class="st28" d="M49.4,331.2v1.4H39.1v3.7h-1.3v-8.9h1.3v3.7H49.4z"/>
			<path class="st28" d="M49.4,319.7l-3.3,1.2v4.6l3.3,1.2v1.5l-11.6-4.3v-1.4l11.6-4.3V319.7z M39.6,323.2l5.3,1.9v-3.8L39.6,323.2
				L39.6,323.2z"/>
			<path class="st28" d="M51.7,309.1v1.2c-0.3,0.2-0.5,0.4-0.8,0.6c-0.3,0.2-0.6,0.4-1.1,0.6c-0.4,0.2-0.9,0.4-1.4,0.5
				c-0.5,0.1-1.1,0.3-1.7,0.4c-0.7,0.1-1.3,0.1-2,0.1c-0.7,0-1.4,0-2-0.1c-0.6-0.1-1.2-0.2-1.6-0.3c-0.4-0.1-0.9-0.3-1.3-0.5
				c-0.4-0.2-0.8-0.4-1-0.6s-0.5-0.4-0.9-0.6v-1.2c0.2,0.2,0.5,0.4,0.9,0.6c0.4,0.2,0.8,0.4,1.4,0.6s1.2,0.4,2,0.5
				c0.8,0.1,1.6,0.2,2.5,0.2c0.6,0,1.2,0,1.7-0.1c0.5-0.1,1-0.1,1.5-0.3c0.5-0.1,0.9-0.2,1.2-0.3c0.3-0.1,0.7-0.3,1.1-0.4
				c0.4-0.2,0.7-0.3,0.8-0.4S51.4,309.3,51.7,309.1z"/>
			<path class="st28" d="M49.4,298.5v1.4h-5.3v6.4h5.3v1.4H37.8v-1.4h5v-6.4h-5v-1.4H49.4z"/>
			<path class="st28" d="M51.7,297c-0.3-0.2-0.6-0.3-0.7-0.4s-0.5-0.2-0.8-0.4c-0.4-0.2-0.7-0.3-1.1-0.4s-0.7-0.2-1.2-0.3
				c-0.5-0.1-1-0.2-1.5-0.3c-0.5-0.1-1.1-0.1-1.7-0.1c-0.9,0-1.7,0.1-2.5,0.2c-0.8,0.1-1.5,0.3-2,0.5c-0.6,0.2-1,0.4-1.4,0.6
				c-0.4,0.2-0.7,0.4-0.9,0.6v-1.2c0.3-0.3,0.6-0.5,0.9-0.6s0.6-0.4,1-0.6c0.4-0.2,0.9-0.4,1.3-0.5c0.4-0.1,1-0.2,1.6-0.3
				c0.6-0.1,1.3-0.1,2-0.1c2.9,0,5.2,0.7,7,2.2V297z"/>
		</g>
	</g>
</g>
</svg>
